<?xml version="1.0" encoding="UTF-8"?>
<svg xmlns="http://www.w3.org/2000/svg" version="1.1" viewBox="0 0 70 44">
  <defs>
    <style>
      .cls-1, .cls-2 {
        stroke-width: 5px;
      }

      .cls-1, .cls-2, .cls-3 {
        stroke: #fff;
        stroke-miterlimit: 10;
      }

      .cls-2 {
        fill-rule: evenodd;
      }

      .cls-3 {
        stroke-width: 2px;
      }
    </style>
  </defs>
  <!-- Generator: Adobe Illustrator 28.7.1, SVG Export Plug-In . SVG Version: 1.2.0 Build 142)  -->
  <g>
    <g id="logo-74">
      <path class="cls-3" d="M-17.4-260.2c0,.4,0,1-.1,1.3-.6,4.3-.6,8.7-.2,13.1.2,1.1.5,2.2,1.4,3.1,1.5,1.7,3.8,1.3,4.7-.7.5-1,.5-2,.2-3-1.2-4.2-1.4-8.7-1.5-13v-.9c1.3-.1,2.4-.2,3.5-.2.8-.1,1.5-.2,2.1-.6,1.7-.9,1.7-2.8-.1-3.7-.7-.3-1.6-.4-2.4-.4-2.9.1-5.8.1-8.7.1s-2.1.1-3.1.2c-.6.1-1.3.1-1.7.4-.8.3-1.3.9-1.3,1.7.1.8.5,1.2,1.3,1.6.5.3,1,.4,1.6.4,1.4.1,2.9.3,4.4.4ZM14.4-255.1c0,.1.1.2.1.2.5,3,.9,5.9,1.3,8.8.1,1,.2,1.9.9,2.7,1.5,1.9,3.8,1.7,4.8-.3.5-1,.6-2,.3-3.1-.7-3.3-1-6.7-1.7-9.9-.5-2-1-3.9-1.6-5.7-.3-1.1-1.2-1.9-2.5-2-1.4-.2-2.4.4-3,1.4-.7.9-1.3,1.8-1.7,2.8-.8,1.8-1.5,3.6-2.4,5.2-.1.4-.2.8-.5,1.1-.1-.2-.2-.3-.2-.3-1.5-2.8-2.9-5.6-4.4-8.2-.2-.2-.3-.4-.5-.7-.7-1-1.5-1.6-2.8-1.6-1.2.1-2.1.8-2.7,1.8-.2.4-.2.8-.3,1.2-.5,3.6-1,7.1-1.5,10.7-.2,2-.3,4-.3,6-.1.4,0,1,.2,1.4.2.9.9,1.4,1.8,1.6,1.2.1,2-.2,2.3-1.1.3-.7.5-1.2.6-1.8.5-2,.8-3.9,1.2-5.8.2-1.1.3-2,.7-3.2.2.4.5.8.7,1.1,1,1.3,2.1,2.7,3.3,3.8,1.3.9,2.3.8,3.3-.2.2-.2.3-.3.6-.6,1-1.6,2.3-3.1,3.3-4.7.2-.2.3-.4.6-.7Z"/>
      <path class="cls-1" d="M-251.7-258c-.8,2.1-1,3.6-.6,4.9.4,1.7,1.5,2.3,2.9,1.8,13.6-3.2,43.3,5.9,54.3,8.5,2.6.5,4.7-2.7,2.9-5.6-2.6-2.8-32.3-14.8-43.7-15.4-4.4-.2-12.4-1.3-15.9,5.8Z"/>
      <path class="cls-1" d="M-135.4-296.8c1.4.8,2.3,1.6,2.7,2.4.6,1.1.3,1.9-.7,2.3-9,4.2-20.9,22.3-25.7,28.6-1.2,1.4-3.9.6-4.3-1.8,0-2.7,10.7-22.3,16.6-27.7,2.3-2.1,6.2-6.2,11.5-3.8Z"/>
      <path class="cls-1" d="M-206.8-305.7c1.7-1.3,3.5-1.7,4.5-.9,13.5,11.1,20.7,28.7,25.1,44.9.2.4.2.9,0,1.5,0,.5-.4,1-1,1.4-.6.4-1.2.6-1.4.2-5.9-7.8-39.8-37.9-27.2-47Z"/>
      <path class="cls-1" d="M-493.3-112.8c3.2-2.3,6.8-4.3,10.5-5.8,3.9-1.1,8.1-.9,11.8.5,3.8,1.4,7,4,9.1,7.3,1.9,3.3,2.7,7.1,2.1,10.9-.5,3.8-2.3,7.2-5.1,9.9-2.1,2.2-4.6,4.1-7.2,5.7-11.9,7.4-23.8,14.3-35.8,21.7-2.4,1.8-5,3.5-7.8,4.9-4.1,2-8.9,2.5-13.4,1.5-4.5-1-8.5-3.5-11.3-7.1-2.1-2.5-3.9-5.3-5.2-8.2-11.3-22.9-23.1-45.7-34-69.1-5-10.1-9.1-21.7-13.1-32.9-1.7-3.3-2.1-7-.9-10.5,1.1-3.5,3.6-6.4,7-8.2,3.3-1.7,7.3-2.2,10.9-1.2s6.8,3.3,8.7,6.5c5.9,7.5,11.1,15.5,15.5,23.8,11.3,20.2,22.1,40.4,33.1,60,.6,1.1,1.3,2.1,2.1,3.1,8.2-3.3,15.9-7.7,23-12.9Z"/>
      <path class="cls-1" d="M-376.1-119.8c-25.9,29.2-69.4,21.8-91.2-15.7-15.5-26.7-18.3-70.7,15.5-98.4,7.2-5.8,15.8-9.8,25.1-11.5,11.3-1.6,22.9.4,33,5.5,10.1,5.1,18.3,13.2,23.4,23.1,18.5,32.3,15.8,73.5-5.8,97.1ZM-386.6-187.9c-2.8-7.9-8.3-14.7-15.6-19.2-4.2-2.9-9.2-4.2-14.3-3.9-5.1.3-9.9,2.3-13.7,5.6-15,12.8-18.2,43.2-7.2,61.3,1.4,2.9,3.4,5.6,6,7.7s5.6,3.7,8.8,4.5c3.2.9,6.6,1.1,10,.5,3.3-.5,6.5-1.7,9.3-3.6,8.1-6.1,14.1-14.4,17.1-23.9,3-9.5,2.8-19.6-.5-29h.3Z"/>
      <path class="cls-1" d="M-270.3-175.2c-2.7.5-5.4.6-8.1,0-2.7-.5-5.2-1.5-7.5-2.9-2-1.1-3.7-2.6-5-4.4-1.3-1.8-2.2-3.9-2.6-6-.4-2.2-.3-4.4.4-6.5.6-2.1,1.7-4.1,3.2-5.7,2.6-3.3,6.3-5.7,10.5-6.8,10.9-3.1,22.2-4.9,33.6-5.6,2.5-.3,5,0,7.4.6,2.4.7,4.7,1.8,6.6,3.3,2,1.5,3.6,3.4,4.8,5.5,1.2,2.1,1.9,4.5,2.2,6.9,3.3,11.8,3.6,24.2,1,36.2-9.4,38.8-42,52.1-78.5,39.7-10.3-3.3-19.2-9.5-25.8-17.8-8.8-9.9-15-21.7-18.2-34.4-2.6-11.3-2.3-23,.8-34.2,3.1-11.2,8.9-21.5,17-30,7.7-9.3,17.6-16.6,29-21.3,7.2-3.8,15.6-4.9,23.5-3,1.8.5,3.4,1.4,4.7,2.7,1.3,1.3,2.2,2.9,2.7,4.7.4,1.8.4,3.6-.2,5.3-.5,1.7-1.6,3.3-2.9,4.5-2.6,2.3-5.5,4.3-8.5,6.1-9.3,5.7-17.5,13.1-23.9,21.7-4.2,5.6-7.2,12-8.6,18.8-1.4,6.8-1.2,13.8.5,20.5,2.4,9.2,7.7,17.4,15.1,23.5,23.1,20.2,53.1.7,47.9-26.9-7.7,1.8-14.4,3.7-21.2,5.4Z"/>
      <path class="cls-1" d="M-129.2-118.2c-34.1,20.2-72.9,0-81.4-42.4-6.2-30.3,5.6-72.7,46.7-88.8,8.8-3.4,18.2-4.5,27.6-3.4,11.2,2,21.6,7.3,29.5,15.2,7.9,7.9,13.1,18,14.7,28.9,6.9,36-8.8,74.5-37.1,90.6ZM-117.3-186.2c0-8.4-3.1-16.5-8.7-22.9-3-4-7.3-6.8-12.3-8-4.9-1.2-10.2-.8-14.8,1.3-18.5,7.7-31.5,35.5-26.8,56,.4,3.2,1.4,6.3,3.2,9.1s4.1,5.1,6.9,6.9c2.8,1.8,6,3,9.3,3.5,3.3.5,6.7.3,10-.6,9.8-3.3,18.2-9.4,24.2-17.5,6-8.1,9.1-17.8,9.1-27.8Z"/>
      <path class="cls-1" d="M-57.7-109.7c-.5,3.7-2.5,7-5.6,9.3-3.1,2.3-7,3.3-10.8,2.8-3.8-.5-7.3-2.4-9.7-5.4-2.4-3-3.4-6.7-2.9-10.4.5-3.7,2.5-7,5.6-9.3,3.1-2.3,7-3.3,10.8-2.8,3.8.5,7.3,2.4,9.7,5.4,2.4,3,3.4,6.7,2.9,10.4ZM-66.8-245.9c2-2.9,4.9-5.2,8.3-6.4,3.4-1.2,7.2-1.3,10.6-.3,3.5.9,6.7,2.9,8.9,5.7,2.2,2.8,3.3,6.3,3.2,9.8-.5,5.6-1.3,11.2-2.6,16.8-3.5,18.7-6.8,37.4-10.5,55.8-1.7,7.4-3.9,14.4-6.3,21.9-.8,2.3-2.2,4.4-4.1,6.2-1.2,1.3-2.6,2.3-4.3,2.9-1.7.6-3.4.8-5.2.5-1.7-.2-3.4-.9-4.8-1.9-1.4-1-2.5-2.4-3.3-3.9-1.2-2.8-1.9-5.8-2-8.8,0-12.5,0-25.1.8-37.8,1.4-18,4.2-35.9,8.4-53.5.5-2.4,1.4-4.6,2.7-6.7v-.3Z"/>
      <path class="cls-2" d="M-537.6-28.6c-1.2,2.7-1.6,5.6-1,8.5.4,3.8,1.3,7.5,2.6,11,1.7,4.4,3.6,8.7,5.9,14,.5,1.2,1.1,2.5,1.7,3.8,3.1,7.2,7.1,16.4,12.3,29.7,1.5,3.8,2.8,7.6,4.1,11.4.5,1.5,1.1,3.1,1.6,4.7,2,5.5,5.4,10.5,9.9,14.5,1.9,2.2,4.4,3.7,7.3,4.5,2.9.8,6,.8,8.8-.1,2.9-.9,5.4-2.6,7.2-4.9,1.8-2.3,2.9-5,3.1-7.8,1.2-5.5.8-11.2-1.2-16.6-3.1-8.8-6.6-17.7-10.6-26.3h0c-6.6-13.6-13.3-27-20.4-40.5h0c-2.1-3.6-4.7-6.7-7.9-9.4-2.1-2.3-4.9-3.9-8.1-4.5-3.2-.6-6.5,0-9.3,1.6-2.7,1.5-4.8,3.7-6,6.4Z"/>
      <path class="cls-2" d="M-436.5-62c-10.4-2.6-21.2-3-31.8-1.1-8.2.8-16.2,2.6-21.8,6.2-2.8,1.8-5.1,4.2-6.4,7.2-1.3,3-1.4,6.4-.4,10.2,1.9,7,4.4,13.8,6.9,20.6l.4,1.1h0c7.5,19.7,15,39.3,22.6,58.9.9,3.1,2.1,6.1,3.7,8.9h0c2.1,3.5,4.8,6.7,8,9.3,1.6,1.4,3.6,2.4,5.7,2.9,2.2.4,4.4.3,6.5-.4,2.1-.7,3.9-1.9,5.4-3.6,1.4-1.6,2.3-3.6,2.6-5.6,1.4-5.6.9-11.5-1.3-16.9-.7-1.8-1.2-3.7-1.8-5.6-.2-.6-.4-1.3-.6-2,17.4-6.6,36-15.4,42.5-35.9,2.6-7.1,2.8-14.8.6-22-2.2-7.2-6.6-13.6-12.7-18.3-8.3-6.6-18-11.3-28.4-13.9ZM-465.3-36.8c.3,0,.7-.2,1-.3,11.4-1.7,23,.6,32.7,6.4,4.3,2.9,6,6.1,6.4,9.1.3,3.2-.9,6.6-3.3,9.9-4.5,6.2-12.8,11.2-20.3,12.1-5.4-12.1-11-24.6-16.5-37.3Z"/>
      <path class="cls-1" d="M-367.4-84.1c12.4-5.5,27.7-6.4,39.6-2.6,3,.8,5.6,2.7,7.4,5.2,1.8,2.5,2.6,5.5,2.3,8.5,0,1.9-.5,3.9-1.4,5.6-.9,1.8-2.3,3.3-4,4.4-1.7,1.1-3.6,1.9-5.7,2.1-2,.3-4.1,0-6-.6h-.1c0,0-.1-.1-.1-.1-1-.5-2-.9-3.1-1.1h0c-8.4-2.2-16.4,1.4-19.3,5.8-1.4,2.1-1.6,4.2-.4,6.1,1.2,2.1,4.3,4.4,10.4,6,1.7.4,3.4.9,5.2,1.3,4.8,1.2,9.9,2.5,14.8,4.2h0c22.5,8.2,30.8,25.3,28,41.3-2.8,15.8-16.6,30.3-37.3,33.7-7.5,1.6-15.4,1.3-22.7-.9-7.4-2.2-14-6.2-19.3-11.7h-.1c-1.7-2.2-2.8-4.6-3.3-7.2-.5-2.3-.2-4.7.7-6.9.9-2.2,2.4-4,4.4-5.4,2.1-1.5,4.6-2.5,7.2-2.7,2.6-.2,5.2.4,7.5,1.6,2.3,1.1,4.4,2.4,6.3,4h0c3.4,3,7.5,3.8,11.4,3.1,4-.7,7.7-3,10.1-6,2.4-3,3.4-6.5,2.2-10-1.1-3.5-4.6-7.4-12.2-10.6-2-.8-4-1.5-6.2-2.1-.6-.2-1.2-.3-1.8-.5-1.6-.5-3.2-.9-4.8-1.5-1.1-.4-2.2-.7-3.3-1-2.9-.9-5.8-1.8-8.6-3-6-2-11.2-5.8-14.8-10.8-3.6-5.1-5.4-11.1-5.2-17.3,0-15,9.8-25.3,22.2-30.8Z"/>
      <path class="cls-1" d="M-210.7-85.6c-2.4-1.1-5-1.7-7.7-1.6-2.7.1-5.3.8-7.6,2.2-2.3,1.3-4.2,3.1-5.5,5.3-1.3,1.8-2.1,3.9-2.6,6.1-.4,2.2-.4,4.4,0,6.5.4,2.8.9,5.5,1.4,8.1.8,4.4,1.6,8.7,2.1,13.1h0c1.2,7,1.8,13.9,1.9,20.9h0c.4,7.6-2.3,15-7.4,20.6h0c-1.7,2.2-3.9,3.7-6.5,4.7-2.6.9-5.3,1.1-8,.6s-5.1-1.7-7.1-3.5c-2-1.8-3.4-4.1-4.1-6.6-1.5-5.3-2.4-10.8-2.6-16.3l2.6-40.1c0-.5,0-1.1.1-1.6,0-1.2.2-2.5.2-3.6,0-1.7,0-3.4-.4-5.1-.4-1.7-1.2-3.3-2.6-4.7-1.4-1.4-3.3-2.4-5.7-3-4.3-1.2-8-1.2-11,0-3,1.2-5.1,3.6-6.6,6.2-1.5,2.6-2.4,5.8-3.1,8.9-.5,2.3-1,4.8-1.4,7.1-.1.8-.3,1.6-.4,2.4h0c-2.2,12.8-2.8,25.7-1.9,38.6.2,7,1.7,13.9,4.5,20.3,3.1,8.3,8.8,15.5,16.3,20.6,7.5,5.1,16.4,8,25.6,8.1s18.2-2.4,25.9-7.3c7.7-4.9,13.6-11.9,17-20.1,4.8-10.5,7-21.8,6.6-33.2-.3-8.3-.8-16.7-1.2-25.1-.2-4.1-.5-8.2-.7-12.3-.1-4.1-1.5-8-4-11.3-1.6-2.1-3.6-3.8-6-4.9Z"/>
      <path class="cls-1" d="M-125.9-22.8c-.2.3-.5.6-.8.9-1.9-10.8-3.8-21.6-5.6-32.4-.6-3.9-1.3-7.8-2-11.7v-.4c0,0-.3-.4-.3-.4-.5-.7-.5-1.4-.5-2.9v-.3c-.5-3-1.9-5.9-4.1-8.1-2.2-2.2-5-3.8-8.1-4.5-3.1-.7-6.4-.6-9.4.5-3,1-5.6,2.9-7.5,5.4-1.6,1.9-2.9,4-3.9,6.2-2.2,4.8-4.4,9.7-6.7,14.5h0c-5.6,12.2-11.2,24.4-16.7,36.7h0c-3.4,8-6.1,16.4-8.9,24.8-.6,1.7-1.1,3.3-1.7,5-1,2.6-1.4,5.5-1.3,8.3-.2,2.5.4,5,1.8,7.2,1.4,2.2,3.4,3.9,5.9,5,2.6,1.1,5.5,1.3,8.3.7,2.8-.7,5.2-2.2,6.9-4.3,2.2-2.6,4.2-5.5,5.7-8.6,4.6-9.1,9.1-18.3,13.5-27.5,1.7-3.6,3.4-6.7,5.2-10.2.1.4.3.8.4,1.3,2,8.4,5.3,16.4,9.9,23.7.9,1.6,2.1,2.9,3.5,4,1.5,1.1,3.2,1.8,5,2.2,1.8.4,3.7.4,5.5,0,1.8-.4,3.5-1.1,5-2.2l2.9-2.1,22.7-18.4-1.3,8.2c-1.8,11.3-3.7,22.6-5.6,33.8-1.3,5-1.3,10.2,0,15.2.6,2.8,2,5.4,4,7.4,2.1,2,4.8,3.4,7.7,4,2.9.6,6,.2,8.7-.9,2.7-1.1,5-3,6.6-5.3,3.7-4.5,6.1-9.9,6.7-15.6,1-8.1,2.1-16.2,3.1-24.4,1.3-9.4,2.5-18.8,3.6-28.1h0c1-10.1,1.5-20.3,1.5-30.5.2-3.2-.6-6.4-2.4-9.1-1.8-2.7-4.4-4.9-7.5-6.1-3.2-1.4-6.9-1.8-10.3-1.1-3.5.7-6.6,2.5-8.9,5-4.2,3.7-8.1,7.7-11.8,11.9h0c-4,4.8-7.9,9.7-11.9,14.5-2.4,2.9-4.8,5.9-7.1,8.8Z"/>
    </g>
  </g>
</svg>